<?xml version="1.0" encoding="UTF-8"?>
<svg width="56px" height="56px" viewBox="0 0 56 56" version="1.1" xmlns="http://www.w3.org/2000/svg" xmlns:xlink="http://www.w3.org/1999/xlink">
    <title>icon_ai@3x</title>
    <g id="页面" stroke="none" stroke-width="1" fill="none" fill-rule="evenodd">
        <g id="Astore" transform="translate(-814.000000, -1805.000000)" stroke="#FF7F00" stroke-width="2">
            <g id="主体" transform="translate(0.000000, 127.000000)">
                <g id="视觉感知平台" transform="translate(360.000000, 1558.000000)">
                    <g id="能力" transform="translate(414.000000, 80.000000)">
                        <g id="icon_ai" transform="translate(40.000000, 40.000000)">
                            <g transform="translate(0.000000, 5.000000)">
                                <path d="M52,1 C52.8284271,1 53.5784271,1.33578644 54.1213203,1.87867966 C54.6642136,2.42157288 55,3.17157288 55,4 L55,4 L55,42 C55,42.8284271 54.6642136,43.5784271 54.1213203,44.1213203 C53.5784271,44.6642136 52.8284271,45 52,45 L52,45 L4,45 C3.17157288,45 2.42157288,44.6642136 1.87867966,44.1213203 C1.33578644,43.5784271 1,42.8284271 1,42 L1,42 L1,4 C1,3.17157288 1.33578644,2.42157288 1.87867966,1.87867966 C2.42157288,1.33578644 3.17157288,1 4,1 L4,1 Z" id="矩形"></path>
                                <line x1="1" y1="13" x2="55" y2="13" id="路径"></line>
                                <polyline id="路径" transform="translate(19.000000, 29.000000) rotate(-315.000000) translate(-19.000000, -29.000000) " points="24 34 14 34 14 24"></polyline>
                                <polyline id="路径" transform="translate(37.000000, 29.000000) rotate(-315.000000) translate(-37.000000, -29.000000) " points="32 24 42 24 42 34"></polyline>
                                <line x1="24" y1="36.660254" x2="32" y2="21.339746" id="路径"></line>
                            </g>
                        </g>
                    </g>
                </g>
            </g>
        </g>
    </g>
</svg>