<?xml version="1.0" encoding="UTF-8"?>
<svg width="56px" height="57px" viewBox="0 0 56 57" version="1.1" xmlns="http://www.w3.org/2000/svg" xmlns:xlink="http://www.w3.org/1999/xlink">
    <title>icon_data@3x</title>
    <g id="页面" stroke="none" stroke-width="1" fill="none" fill-rule="evenodd">
        <g id="Astore" transform="translate(-1227.000000, -2105.000000)" stroke="#526FFF" stroke-width="2">
            <g id="主体" transform="translate(0.000000, 127.000000)">
                <g id="视觉感知平台" transform="translate(360.000000, 1558.000000)">
                    <g id="数据" transform="translate(827.000000, 380.000000)">
                        <g id="icon_data" transform="translate(40.000000, 40.000000)">
                            <g transform="translate(1.000440, 7.030864)">
                                <path d="M26.0213861,27 L26.0213861,42 L2.02138611,42 C1.19295899,42 0.442958985,41.6642136 -0.0999342337,41.1213203 C-0.642827452,40.5784271 -0.97861389,39.8284271 -0.97861389,39 L-0.97861389,39 L-0.97861389,30 C-0.97861389,29.1715729 -0.642827452,28.4215729 -0.0999342337,27.8786797 C0.442958985,27.3357864 1.19295899,27 2.02138611,27 L2.02138611,27 L26.0213861,27 Z" id="矩形" transform="translate(12.521386, 34.500000) rotate(-270.000000) translate(-12.521386, -34.500000) "></path>
                                <path d="M46.0213861,22 L46.0213861,37 L12.0213861,37 C11.192959,37 10.442959,36.6642136 9.90006577,36.1213203 C9.35717255,35.5784271 9.02138611,34.8284271 9.02138611,34 L9.02138611,34 L9.02138611,25 C9.02138611,24.1715729 9.35717255,23.4215729 9.90006577,22.8786797 C10.442959,22.3357864 11.192959,22 12.0213861,22 L12.0213861,22 L46.0213861,22 Z" id="矩形" transform="translate(27.521386, 29.500000) rotate(-270.000000) translate(-27.521386, -29.500000) "></path>
                                <path d="M66.0213861,17 L66.0213861,32 L22.0213861,32 C21.192959,32 20.442959,31.6642136 19.9000658,31.1213203 C19.3571725,30.5784271 19.0213861,29.8284271 19.0213861,29 L19.0213861,29 L19.0213861,20 C19.0213861,19.1715729 19.3571725,18.4215729 19.9000658,17.8786797 C20.442959,17.3357864 21.192959,17 22.0213861,17 L22.0213861,17 L66.0213861,17 Z" id="矩形" transform="translate(42.521386, 24.500000) rotate(-270.000000) translate(-42.521386, -24.500000) "></path>
                                <line x1="5.68451536e-13" y1="47.9991364" x2="54.9995598" y2="47.969136" id="路径"></line>
                            </g>
                        </g>
                    </g>
                </g>
            </g>
        </g>
    </g>
</svg>