<?xml version="1.0" encoding="UTF-8"?>
<svg width="56px" height="56px" viewBox="0 0 56 56" version="1.1" xmlns="http://www.w3.org/2000/svg" xmlns:xlink="http://www.w3.org/1999/xlink">
    <title>icon_camera@3x</title>
    <g id="页面" stroke="none" stroke-width="1" fill="none" fill-rule="evenodd">
        <g id="Astore" transform="translate(-400.000000, -1805.000000)" stroke="#F0524D" stroke-width="2">
            <g id="主体" transform="translate(0.000000, 127.000000)">
                <g id="视觉感知平台" transform="translate(360.000000, 1558.000000)">
                    <g id="相机" transform="translate(0.000000, 80.000000)">
                        <g id="icon_camera" transform="translate(40.000000, 40.000000)">
                            <g transform="translate(0.000000, 7.000000)">
                                <path d="M52,1 C52.8284271,1 53.5784271,1.33578644 54.1213203,1.87867966 C54.6642136,2.42157288 55,3.17157288 55,4 L55,4 L55,38 C55,38.8284271 54.6642136,39.5784271 54.1213203,40.1213203 C53.5784271,40.6642136 52.8284271,41 52,41 L52,41 L4,41 C3.17157288,41 2.42157288,40.6642136 1.87867966,40.1213203 C1.33578644,39.5784271 1,38.8284271 1,38 L1,38 L1,4 C1,3.17157288 1.33578644,2.42157288 1.87867966,1.87867966 C2.42157288,1.33578644 3.17157288,1 4,1 L4,1 Z" id="矩形"></path>
                                <line x1="38" y1="8" x2="48" y2="8" id="路径"></line>
                                <line x1="14.8966697" y1="18.1454248" x2="19.1393104" y2="13.9027842" id="路径"></line>
                                <circle id="椭圆形" cx="22" cy="21" r="13"></circle>
                            </g>
                        </g>
                    </g>
                </g>
            </g>
        </g>
    </g>
</svg>