<?xml version="1.0" encoding="UTF-8"?>
<svg width="56px" height="56px" viewBox="0 0 56 56" version="1.1" xmlns="http://www.w3.org/2000/svg" xmlns:xlink="http://www.w3.org/1999/xlink">
    <title>icon_vision@3x</title>
    <g id="页面" stroke="none" stroke-width="1" fill="none" fill-rule="evenodd">
        <g id="Astore" transform="translate(-400.000000, -2103.000000)" stroke="#7BC656" stroke-width="2">
            <g id="主体" transform="translate(0.000000, 127.000000)">
                <g id="视觉感知平台" transform="translate(360.000000, 1558.000000)">
                    <g id="可视" transform="translate(0.000000, 378.000000)">
                        <g id="icon_vision" transform="translate(40.000000, 40.000000)">
                            <g transform="translate(0.000000, 4.000000)">
                                <path d="M52,1 C52.8284271,1 53.5784271,1.33578644 54.1213203,1.87867966 C54.6642136,2.42157288 55,3.17157288 55,4 L55,4 L55,36 C55,36.8284271 54.6642136,37.5784271 54.1213203,38.1213203 C53.5784271,38.6642136 52.8284271,39 52,39 L52,39 L4,39 C3.17157288,39 2.42157288,38.6642136 1.87867966,38.1213203 C1.33578644,37.5784271 1,36.8284271 1,36 L1,36 L1,4 C1,3.17157288 1.33578644,2.42157288 1.87867966,1.87867966 C2.42157288,1.33578644 3.17157288,1 4,1 L4,1 Z" id="矩形"></path>
                                <line x1="6.00044021" y1="47.0300004" x2="50" y2="47.0308123" id="路径"></line>
                                <line x1="5.74998702" y1="14.2518278" x2="14.2355312" y2="5.76743184" id="路径"></line>
                            </g>
                        </g>
                    </g>
                </g>
            </g>
        </g>
    </g>
</svg>